<svg xmlns="http://www.w3.org/2000/svg"
    version="1.1"
    width="800"
    height="1000"
    id="daily_and_weekly"
    style="font-size: 12pt; font-family: 'Noto Sans JP', sans-serif">

  <rect width="800" height="1000" fill="white" />
  
  <!-- line -->
  <g id="line_monthly" stroke-width="3" fill="none" stroke="#6CBB5A">
    <polyline points="465,568 545,568"/>
    <polyline points="465,582 515,582 515,628"/>
    <polyline points="545,600 545,688"/>
    <polyline points="415,632 485,632 485,778 545,778"/>
    <rect x="450" y="60" rx="10" fill="#6CBB5A" width="100" height="15"/>
  </g>

  <g id="line_quarterly" stroke-width="3" fill="none" stroke="#F7931D">
    <polyline points="465,425 545,425"/>
    <polyline points="365,475 545,475"/>
    <polyline points="530,600 530,658"/>
    <polyline points="365,825 545,825"/>
    <rect x="450" y="85" rx="10" fill="#F7931D" width="100" height="15"/>
  </g>

  <g id="line_daily" fill="#0079C2" stroke="#0079C2" stroke-width="3">
    <rect x="305" y="120" rx="10" width="20" height="265"/>
    <rect x="355" y="170" rx="10" width="20" height="65"/>

    <rect x="450" y="10" rx="10" width="100" height="15"/>
  </g>

  <g id="line_weekly" fill="#00a7db" stroke="#00a7db" stroke-width="3">
    <polyline fill="none" stroke-linecap="round"
          points="415,618 500,618 500,748 545,748"/>

    <rect x="355" y="270" rx="10" width="20" height="565"/>
    <rect x="405" y="170" rx="10" width="20" height="365"/>
    <rect x="405" y="620" rx="10" width="20" height="115"/>
    <rect x="455" y="170" rx="10" width="20" height="715"/>

    <rect x="450" y="35" rx="10" width="100" height="15"/>
  </g>

  <circle cx="545" cy="425" r="5" fill="#FFFFFF" stroke="#000000" stroke-width="3"/>
  <text x="555" y="430" style="font-size: 10pt;">
    <a href="https://wikiwiki.jp/kancolle/%E4%BB%BB%E5%8B%99#id-Bq8" target="_blank">
      <tspan x="555" y="422">泊地周辺海域の</tspan>
      <tspan x="555" y="437">安全確保を徹底せよ！</tspan>
    </a>
  </text>

  <circle cx="545" cy="475" r="5" fill="#FFFFFF" stroke="#000000" stroke-width="3"/>
  <text x="555" y="480" style="font-size: 10pt;">
    <a href="https://wikiwiki.jp/kancolle/%E4%BB%BB%E5%8B%99#id-Bq2" target="_blank">
      <tspan x="555" y="472">戦果拡張任務！</tspan>
      <tspan x="555" y="487">「Z作戦」前段作戦</tspan>
    </a>
  </text>

  <circle cx="545" cy="568" r="5" fill="#FFFFFF" stroke="#000000" stroke-width="3"/>
  <text x="555" y="573" style="font-size: 10pt;">
    <a href="https://wikiwiki.jp/kancolle/%E4%BB%BB%E5%8B%99#id-Bm3" target="_blank">
      「水雷戦隊」南西へ！
    </a>
  </text>

  <!-- <circle cx="515" cy="598" r="5" fill="#FFFFFF" stroke="#000000" stroke-width="3"/> -->
  <rect x="505" y="592" rx="5" width="50" height="15" fill="#FFFFFF" stroke="#000000" stroke-width="3" />
  <text x="555" y="603" style="font-size: 10pt;">
    <a href="https://wikiwiki.jp/kancolle/%E4%BB%BB%E5%8B%99#id-Bm6" target="_blank">
      「空母機動部隊」西へ！
    </a>
  </text>

  <circle cx="515" cy="628" r="5" fill="#FFFFFF" stroke="#000000" stroke-width="3"/>
  <text x="555" y="633" style="font-size: 10pt;">
    <a href="https://wikiwiki.jp/kancolle/%E4%BB%BB%E5%8B%99#id-Bm7" target="_blank">
      「水上反撃部隊」突入せよ！
    </a>
  </text>

  <circle cx="530" cy="658" r="5" fill="#FFFFFF" stroke="#000000" stroke-width="3"/>
  <text x="555" y="663" style="font-size: 10pt;">
    <a href="https://wikiwiki.jp/kancolle/%E4%BB%BB%E5%8B%99#id-Bm7" target="_blank">
      沖ノ島海域迎撃戦
    </a>
  </text>

  <circle cx="545" cy="688" r="5" fill="#FFFFFF" stroke="#000000" stroke-width="3"/>
  <text x="555" y="693" style="font-size: 10pt;">
    <a href="https://wikiwiki.jp/kancolle/%E4%BB%BB%E5%8B%99#id-Bm7" target="_blank">
        精鋭「艦戦」隊の新編成
    </a>
  </text>

  <circle cx="545" cy="748" r="5" fill="#FFFFFF" stroke="#000000" stroke-width="3"/>
  <text x="555" y="753" style="font-size: 10pt;">
    <a href="https://wikiwiki.jp/kancolle/%E4%BB%BB%E5%8B%99#id-F12" target="_blank">
      資源の再利用
    </a>
  </text>

  <circle cx="545" cy="778" r="5" fill="#FFFFFF" stroke="#000000" stroke-width="3"/>
  <text x="555" y="783" style="font-size: 10pt;">
    <a href="https://wikiwiki.jp/kancolle/%E4%BB%BB%E5%8B%99#id-F41" target="_blank">
      「洋上補給」物資の調達
    </a>
  </text>

  <circle cx="545" cy="825" r="5" fill="#FFFFFF" stroke="#000000" stroke-width="3"/>
  <text x="555" y="830" style="font-size: 10pt;">
    <a href="https://wikiwiki.jp/kancolle/%E4%BB%BB%E5%8B%99#id-Bq7" target="_blank">
      <tspan x="555" y="823">新編成「三川艦隊」、</tspan>
      <tspan x="555" y="838">鉄底海峡に突入せよ！</tspan>
    </a>
  </text>

  <!-- station -->
  <!-- Bd1 --> <circle cx="315" cy="125" r="10" fill="#FFFFFF" stroke="black" stroke-width="3" />
  <!-- Bd3 --> <circle cx="365" cy="225" r="10" fill="#FFFFFF" stroke="black" stroke-width="3" />
  <!-- Bd7 --> <circle cx="315" cy="325" r="10" fill="#FFFFFF" stroke="black" stroke-width="3" />
  <!-- Bd8 --> <circle cx="315" cy="375" r="10" fill="#FFFFFF" stroke="black" stroke-width="3" />
  <!-- Bw1 --> <circle cx="465" cy="425" r="10" fill="#FFFFFF" stroke="black" stroke-width="3" />
  <!-- Bw2 --> <circle cx="365" cy="475" r="10" fill="#FFFFFF" stroke="black" stroke-width="3" />
  <!-- Bw3 --> <circle cx="415" cy="525" r="10" fill="#FFFFFF" stroke="black" stroke-width="3" />
  <!-- Bw4 --> <circle cx="465" cy="575" r="10" fill="#FFFFFF" stroke="black" stroke-width="3" />
  <!-- Bw6 --> <circle cx="365" cy="675" r="10" fill="#FFFFFF" stroke="black" stroke-width="3" />
  <!-- Bw7 --> <circle cx="415" cy="725" r="10" fill="#FFFFFF" stroke="black" stroke-width="3" />
  <!-- Bw8 --> <circle cx="365" cy="775" r="10" fill="#FFFFFF" stroke="black" stroke-width="3" />
  <!-- Bd9 --> <circle cx="365" cy="825" r="10" fill="#FFFFFF" stroke="black" stroke-width="3" />
  <!-- Bd10 --><circle cx="465" cy="875" r="10" fill="#FFFFFF" stroke="black" stroke-width="3" />

  <!-- interchange -->
  <!-- Bd2 --><rect x="290" y="160" rx="10" width="200" height="30" stroke="black" stroke-width="3" fill="white" />
  <!-- Bd5 --><rect x="290" y="260" rx="10" width="100" height="30" stroke="black" stroke-width="3" fill="white" />
  <!-- Bw1 --><rect x="440" y="410" rx="10" width="50" height="30" stroke="black" stroke-width="3" fill="white" />
  <!-- Bw2 --><rect x="340" y="460" rx="10" width="50" height="30" stroke="black" stroke-width="3" fill="white" />
  <!-- Bw4 --><rect x="440" y="560" rx="10" width="50" height="30" stroke="black" stroke-width="3" fill="white" />
  <!-- Bw5 --><rect x="340" y="610" rx="10" width="100" height="30" stroke="black" stroke-width="3" fill="white" />
  <!-- Bw9 --><rect x="340" y="810" rx="10" width="50" height="30" stroke="black" stroke-width="3" fill="white" />

  <!-- line name -->
  <text x="560" y="23">デイリー</text>
  <text x="560" y="48">ウィークリー</text>
  <text x="560" y="73">マンスリー</text>
  <text x="560" y="98">クォータリー</text>

  <!-- text -->
  <text x="280" y="131" text-anchor="end"><a href="https://wikiwiki.jp/kancolle/%E4%BB%BB%E5%8B%99#id-Bd1" target="_blank">敵艦隊を撃破せよ！</a></text>
  <text x="280" y="181" text-anchor="end"><a href="https://wikiwiki.jp/kancolle/%E4%BB%BB%E5%8B%99#id-Bd2" target="_blank">敵艦隊主力を撃滅せよ！</a></text>
  <text x="280" y="231" text-anchor="end"><a href="https://wikiwiki.jp/kancolle/%E4%BB%BB%E5%8B%99#id-Bd3" target="_blank">敵艦隊を10回邀撃せよ！</a></text>
  <text x="280" y="281" text-anchor="end"><a href="https://wikiwiki.jp/kancolle/%E4%BB%BB%E5%8B%99#id-Bd5" target="_blank">敵補給艦を3隻撃沈せよ！</a></text>
  <text x="280" y="331" text-anchor="end"><a href="https://wikiwiki.jp/kancolle/%E4%BB%BB%E5%8B%99#id-Bd7" target="_blank">南西諸島海域の制海権を握れ！</a></text>
  <text x="280" y="381" text-anchor="end"><a href="https://wikiwiki.jp/kancolle/%E4%BB%BB%E5%8B%99#id-Bd8" target="_blank">敵潜水艦を制圧せよ！</a></text>
  <text x="280" y="431" text-anchor="end"><a href="https://wikiwiki.jp/kancolle/%E4%BB%BB%E5%8B%99#id-Bw1" target="_blank">あ号作戦</a></text>
  <text x="280" y="481" text-anchor="end"><a href="https://wikiwiki.jp/kancolle/%E4%BB%BB%E5%8B%99#id-Bw2" target="_blank">い号作戦</a></text>
  <text x="280" y="531" text-anchor="end"><a href="https://wikiwiki.jp/kancolle/%E4%BB%BB%E5%8B%99#id-Bw3" target="_blank">海上通商破壊作戦</a></text>
  <text x="280" y="581" text-anchor="end"><a href="https://wikiwiki.jp/kancolle/%E4%BB%BB%E5%8B%99#id-Bw4" target="_blank">ろ号作戦</a></text>
  <text x="280" y="631" text-anchor="end"><a href="https://wikiwiki.jp/kancolle/%E4%BB%BB%E5%8B%99#id-Bw5" target="_blank">海上護衛戦</a></text>
  <text x="280" y="681" text-anchor="end"><a href="https://wikiwiki.jp/kancolle/%E4%BB%BB%E5%8B%99#id-Bw6" target="_blank">敵東方艦隊を撃滅せよ！</a></text>
  <text x="280" y="731" text-anchor="end"><a href="https://wikiwiki.jp/kancolle/%E4%BB%BB%E5%8B%99#id-Bw7" target="_blank">敵北方艦隊主力を撃滅せよ！</a></text>
  <text x="280" y="781" text-anchor="end"><a href="https://wikiwiki.jp/kancolle/%E4%BB%BB%E5%8B%99#id-Bw8" target="_blank">敵東方中枢艦隊を撃破せよ！</a></text>
  <text x="280" y="831" text-anchor="end"><a href="https://wikiwiki.jp/kancolle/%E4%BB%BB%E5%8B%99#id-Bw9" target="_blank">南方海域珊瑚諸島沖の制空権を握れ！</a></text>
  <text x="280" y="881" text-anchor="end"><a href="https://wikiwiki.jp/kancolle/%E4%BB%BB%E5%8B%99#id-Bw10" target="_blank">海上輸送路の安全確保に努めよ！</a></text>
</svg>
